<svg xmlns="http://www.w3.org/2000/svg" viewBox="0 0 93.4 73.89"><defs><style>.cls-1{fill:#e01e3c;}</style></defs><g id="레이어_2" data-name="레이어 2"><g id="작업영역"><path class="cls-1" d="M.67.56a.71.71,0,0,1,1.39,0c1.15,6,5.7,17.79,23.69,25.39C50.69,36.49,56.85,42,64.3,48.71l-5.76,6.86S51.07,46.42,33,38.28C15.9,30.57-3.9,21.73.67.56Z"/><path class="cls-1" d="M92.73.56a.72.72,0,0,0-1.4,0c-1.14,6-5.69,17.79-23.68,25.39C61.21,28.67,56,31.05,51.76,33.2l7.72,5.5.92-.42C77.5,30.57,97.3,21.73,92.73.56Z"/><path class="cls-1" d="M72.58,38.27c4-.73,8.57-.59,10.75.43a50.15,50.15,0,0,1-3,5.19c-1.14,1.48-6.33,6.89-12.87,2A24.52,24.52,0,0,1,63,41.26S70.13,38.71,72.58,38.27Z"/><path class="cls-1" d="M53,56.46c-9.4-9.33-24.3-15.2-24.3-15.2s-7.1-2.55-9.54-3c-4-.73-8.58-.59-10.75.43a48.3,48.3,0,0,0,3,5.19c1.08,1.41,5.83,6.36,11.93,2.61h0c12.05,4.84,22.2,14.17,24.51,16.38a1.66,1.66,0,0,1,.51,1.16,2.34,2.34,0,0,1-2.66,2.37l-.31,0a3.45,3.45,0,0,1-1.78-.8l-7.16-6.25a6.37,6.37,0,0,0-1.23,2.21,8.93,8.93,0,0,0,1.37,7.93c3.54,5.07,7.64,4.39,11.29,4.39C52.19,73.86,62.45,65.78,53,56.46Z"/></g></g></svg>